<svg xmlns="http://www.w3.org/2000/svg" viewBox="0 0 300 300" fill="#67c8f3"><path d="M202.605 100.884c30.977 38.416 81.13 107.857 89.423 137.654.472 1.696-1.435 3.06-2.88 2.054-27.475-19.104-73.382-23.432-89.894-14.397V102.062c0-1.78 2.234-2.562 3.35-1.178zM290.93 254.9c-52.482-2.978-225.765-40.82-281.746-41.848-1.238-.023-2.246.97-2.246 2.2v7.48c0 1.227.992 2.213 2.218 2.207 13.634-.068 46.158-.43 58.38 8.254 12.2 8.668 28.333 40.33 30.15 51.648.17 1.065 1.1 1.837 2.18 1.837H276.16a2.24 2.24 0 0 0 1.041-.252c13.385-7.055 15.493-23.293 15.8-29.217a2.2 2.2 0 0 0-2.079-2.318zm-102.202-34.568V62.2c0-.837-.558-1.566-1.36-1.804-24.127-7.165-38.652-22.425-44.438-31.65-.945-1.507-3.237-1.018-3.47.745-5.512 41.533-49.914 148.478-75.254 182.948-1.05 1.427.3 3.377 2 2.925 43.795-11.56 94.24-20.252 119.263 6.247 1.175 1.244 3.26.434 3.26-1.277z"/><path d="M188.728 60.787V31.44c2.114 2 7.248 6.523 15.946 7.5s15.84-5.5 18.902-5.5c2.887 0 18.702 3.103 22.108 10.62a.52.52 0 0 0 .961-.091c2.785-11.4-15.733-21.122-22.37-22.666-6.926-1.6-9.694 5.074-20.325.725S188.728 6.07 180.03 6.07v54.716h8.698zM126.75 42.93c-14.064-7.695-23.054-17.75-27.3-24.537-.945-1.506-3.234-1.015-3.468.748-5.5 41.53-49.914 148.48-75.255 182.953-1.05 1.427.3 3.377 2 2.925 13.84-3.653 28.344-7.017 42.5-9.077a1.86 1.86 0 0 0 1.354-.916c22.302-38.986 51.1-109.03 61.123-150.003.203-.83-.194-1.68-.945-2.1z"/></svg>
